# xmcd CD database file
# Copyright (C) 1997 Ti Kan
# 
# Track frame offsets:
#     225
#     12880
#     25737
#     39707
#     49175
#     60417
#     70357
#     82590
#     92600
#     103585
#     115015
#     128075
#     137160
# 
# Disc length: 1991 seconds
# 
# Revision: 1
# Processed by: cddbd v1.4b41PL1 Copyright (c) Steve Scherf et al.
# Submitted via: DiscPlay 4.0.4
# 
DISCID=9f07c40d
DTITLE=Stompin' Tom Connors - Stompin' Tom and The Hockey Song
DYEAR=1900
DGENRE=
TTITLE0=The Consumer
TTITLE1=The Last Fatal Duel
TTITLE2=The Curse of The Marc Guylaine
TTITLE3=Blue Spell
TTITLE4=Singin' Away The Blues
TTITLE5=The Hockey Song
TTITLE6=The Maritime Waltz
TTITLE7=Gaspe Belle Faye
TTITLE8=Where Would I Be?
TTITLE9=True, True Love
TTITLE10=The Piggy Back Race
TTITLE11=Your Loving Smile
TTITLE12=Mr. Engineer
EXTD=
EXTT0=
EXTT1=
EXTT2=
EXTT3=
EXTT4=
EXTT5=
EXTT6=
EXTT7=
EXTT8=
EXTT9=
EXTT10=
EXTT11=
EXTT12=
PLAYORDER=
